Run_50002
nRows=4
nColumns=164

# SIMM Motion File Header:
name Run_50002
datacolumns 164
datarows 4
otherdata 1
range 2.85833300 2.88333300
endheader
time	pelvis_tilt	pelvis_list	pelvis_rotation	pelvis_tx	pelvis_ty	pelvis_tz	hip_flexion_r	hip_adduction_r	hip_rotation_r	knee_angle_r	ankle_angle_r	hip_flexion_l	hip_adduction_l	hip_rotation_l	knee_angle_l	ankle_angle_l	lumbar_extension	lumbar_bending	lumbar_rotation	arm_flex_r	arm_add_r	arm_rot_r	elbow_flex_r	pro_sup_r	arm_flex_l	arm_add_l	arm_rot_l	elbow_flex_l	pro_sup_l	subtalar_angle_r	mtp_angle_r	subtalar_angle_l	mtp_angle_l	wrist_flex_r	wrist_dev_r	wrist_flex_l	wrist_dev_l	LASI_tx	LASI_ty	LASI_tz	RASI_tx	RASI_ty	RASI_tz	LPSI_tx	LPSI_ty	LPSI_tz	RPSI_tx	RPSI_ty	RPSI_tz	RTH1_tx	RTH1_ty	RTH1_tz	RTH2_tx	RTH2_ty	RTH2_tz	RTH3_tx	RTH3_ty	RTH3_tz	LTH1_tx	LTH1_ty	LTH1_tz	LTH2_tx	LTH2_ty	LTH2_tz	LTH3_tx	LTH3_ty	LTH3_tz	RTB1_tx	RTB1_ty	RTB1_tz	RTB2_tx	RTB2_ty	RTB2_tz	RTB3_tx	RTB3_ty	RTB3_tz	LTB1_tx	LTB1_ty	LTB1_tz	LTB2_tx	LTB2_ty	LTB2_tz	LTB3_tx	LTB3_ty	LTB3_tz	RCAL_tx	RCAL_ty	RCAL_tz	RTOE_tx	RTOE_ty	RTOE_tz	RMT5_tx	RMT5_ty	RMT5_tz	LCAL_tx	LCAL_ty	LCAL_tz	LTOE_tx	LTOE_ty	LTOE_tz	LMT5_tx	LMT5_ty	LMT5_tz	LACR_tx	LACR_ty	LACR_tz	RACR_tx	RACR_ty	RACR_tz	CLAV_tx	CLAV_ty	CLAV_tz	C7_tx	C7_ty	C7_tz	RUA1_tx	RUA1_ty	RUA1_tz	RUA2_tx	RUA2_ty	RUA2_tz	RUA3_tx	RUA3_ty	RUA3_tz	RLEL_tx	RLEL_ty	RLEL_tz	RMEL_tx	RMEL_ty	RMEL_tz	LUA1_tx	LUA1_ty	LUA1_tz	LUA2_tx	LUA2_ty	LUA2_tz	LUA3_tx	LUA3_ty	LUA3_tz	LLEL_tx	LLEL_ty	LLEL_tz	LMEL_tx	LMEL_ty	LMEL_tz	RFAsuperior_tx	RFAsuperior_ty	RFAsuperior_tz	RFAradius_tx	RFAradius_ty	RFAradius_tz	RFAulna_tx	RFAulna_ty	RFAulna_tz	LFAsuperior_tx	LFAsuperior_ty	LFAsuperior_tz	LFAradius_tx	LFAradius_ty	LFAradius_tz	LFAulna_tx	LFAulna_ty	LFAulna_tz
      2.85833300	     -0.12956622	     -7.77817565	     -8.76450428	      0.93961229	      1.01444028	     -0.63313288	     30.12287290	     18.78943815	     -0.86967891	    -41.86028641	     14.21633922	     -4.02569776	     -7.44458262	    -12.85964353	   -112.69650725	      1.45449754	    -19.42208771	      8.22042010	     -4.44454457	    -27.81970318	    -26.14755228	     -8.41452984	    103.64787915	    116.37876706	    -14.12156782	    -18.31281882	      9.12261023	    112.53311350	     96.45572218	      0.00000000	      0.00000000	      0.00000000	      0.00000000	      0.00000000	      0.00000000	      0.00000000	      0.00000000	      0.95591600	      1.01047825	     -0.76894772	      0.92083255	      1.04141787	     -0.51483520	      0.76585919	      1.05534487	     -0.70380053	      0.75086546	      1.05440029	     -0.62301307	      0.88860934	      0.86766876	     -0.46357761	      0.98076925	      0.78522273	     -0.47415879	      0.96464554	      0.66043049	     -0.52682445	      0.86889480	      0.79706729	     -0.81907841	      0.90124500	      0.66793137	     -0.81137958	      0.82239330	      0.57307076	     -0.78901415	      1.09622191	      0.40565695	     -0.63612416	      1.07243435	      0.33346847	     -0.57645428	      1.06648668	      0.24341029	     -0.66025840	      0.70681439	      0.46202141	     -0.72784850	      0.63214863	      0.52377716	     -0.77155218	      0.52320495	      0.54862459	     -0.70374915	      0.93363653	      0.10312496	     -0.69086403	      1.16811525	      0.07365625	     -0.70385515	      1.09543696	      0.05107017	     -0.60938576	      0.45133918	      0.69465466	     -0.67106309	      0.32292898	      0.50010851	     -0.68872467	      0.33520239	      0.58531203	     -0.76355986	      0.99999033	      1.48324862	     -0.80943727	      0.91901004	      1.48898957	     -0.47325270	      0.99545473	      1.43335273	     -0.59513492	      0.88390003	      1.52795250	     -0.65506617	      0.85052555	      1.41030402	     -0.39987497	      0.81720989	      1.32610075	     -0.39998094	      0.74185470	      1.35387665	     -0.39932109	      0.65913889	      1.24629045	     -0.35139936	      0.65294018	      1.23202152	     -0.43150050	      0.99129877	      1.38876392	     -0.88437683	      0.98735098	      1.31759331	     -0.87479707	      0.89522834	      1.31929396	     -0.90709946	      0.88370603	      1.15675500	     -0.95808430	      0.81575158	      1.15809553	     -0.90000818	      0.74851298	      1.19163857	     -0.33010621	      0.90162958	      1.10357042	     -0.39033536	      0.86990982	      1.07171392	     -0.33390217	      0.96514230	      1.14017772	     -0.90426147	      1.06114321	      1.14504320	     -0.74790417	      1.06373522	      1.07629209	     -0.77122682
      2.86666700	     -0.56169566	     -8.24605117	     -9.24854700	      0.93396923	      1.00962075	     -0.63245066	     30.07355029	     19.58030845	     -0.66442511	    -45.28171028	     17.05868581	      0.20062637	     -8.58500611	    -12.23973507	   -117.57342558	      2.32605252	    -20.01609366	      8.69832771	     -2.61087933	    -23.94475925	    -26.49606032	     -7.17874149	    102.24922664	    116.52941229	    -13.50690968	    -18.33038834	      9.78616262	    108.73389730	     96.40177469	      0.00000000	      0.00000000	      0.00000000	      0.00000000	      0.00000000	      0.00000000	      0.00000000	      0.00000000	      0.95177537	      1.00489176	     -0.76842495	      0.91601239	      1.03696445	     -0.51326881	      0.76164359	      1.05197442	     -0.70404180	      0.74597280	      1.05122585	     -0.62406950	      0.88035710	      0.86477625	     -0.46413721	      0.97185930	      0.78126936	     -0.47357785	      0.95544798	      0.65748114	     -0.52846831	      0.87532493	      0.79199694	     -0.81868686	      0.91513036	      0.66437526	     -0.81106042	      0.84300774	      0.56564127	     -0.78949873	      1.07748642	      0.40220829	     -0.63742789	      1.04983160	      0.33232748	     -0.57652054	      1.03754426	      0.24156588	     -0.65994094	      0.73498796	      0.45758339	     -0.72832920	      0.66112545	      0.51898043	     -0.77352627	      0.55312270	      0.54738512	     -0.70566327	      0.89363329	      0.10427354	     -0.69133963	      1.12809697	      0.07247240	     -0.70464850	      1.05506174	      0.05103169	     -0.61011759	      0.48103972	      0.69521871	     -0.67624905	      0.35272392	      0.50036057	     -0.69132268	      0.36673905	      0.58367066	     -0.76820319	      0.99754045	      1.47730483	     -0.81146719	      0.92023236	      1.48327975	     -0.47227930	      0.99639486	      1.42799168	     -0.59602632	      0.88511452	      1.52484197	     -0.65319419	      0.85714316	      1.39725597	     -0.39668413	      0.82687496	      1.31312658	     -0.39651048	      0.75062432	      1.33619825	     -0.39055944	      0.67505614	      1.22618284	     -0.34137990	      0.66511531	      1.21125797	     -0.42068397	      0.98770334	      1.38101751	     -0.88518928	      0.98225464	      1.30989741	     -0.87524653	      0.89081650	      1.31352130	     -0.90872923	      0.87585565	      1.15168047	     -0.95933892	      0.80885556	      1.15380262	     -0.90044846	      0.76688519	      1.17388854	     -0.32311690	      0.92015576	      1.09138270	     -0.38880446	      0.89140445	      1.05875545	     -0.33114747	      0.95645748	      1.12800115	     -0.90732854	      1.05519925	      1.12247214	     -0.75217450	      1.05486492	      1.05463856	     -0.77802880
      2.87500000	     -0.98867193	     -8.66976666	     -9.59535231	      0.92893470	      1.00587472	     -0.63230160	     29.24084709	     20.14482859	     -0.26407347	    -47.40941286	     19.64779165	      4.69776490	     -9.61009009	    -11.29537650	   -121.73939185	      3.13586599	    -20.51321486	      9.18773057	     -0.84367290	    -20.02295015	    -26.89825613	     -5.98453539	    100.78268585	    116.56472701	    -12.87724341	    -18.22310559	     10.52537457	    104.86576532	     96.43162062	      0.00000000	      0.00000000	      0.00000000	      0.00000000	      0.00000000	      0.00000000	      0.00000000	      0.00000000	      0.94756093	      1.00070116	     -0.76826437	      0.91152328	      1.03389723	     -0.51176393	      0.75782458	      1.04980724	     -0.70454918	      0.74171282	      1.04972742	     -0.62510349	      0.87180357	      0.86227206	     -0.46515117	      0.96252624	      0.77735674	     -0.47450765	      0.94360367	      0.65414114	     -0.53012837	      0.88222411	      0.78821518	     -0.81829792	      0.93123380	      0.66276798	     -0.81018423	      0.86600968	      0.56053497	     -0.79032746	      1.05610729	      0.39531704	     -0.63733398	      1.02311852	      0.32818436	     -0.57573915	      1.00673688	      0.23742752	     -0.65828487	      0.76491821	      0.45381771	     -0.72836100	      0.69133917	      0.51414317	     -0.77524342	      0.58364831	      0.54438752	     -0.70756392	      0.85375905	      0.10492573	     -0.69077727	      1.08805454	      0.07122646	     -0.70439894	      1.01479679	      0.05002935	     -0.60998757	      0.50868641	      0.69355355	     -0.68171428	      0.38409274	      0.49616408	     -0.69351989	      0.39802533	      0.57760153	     -0.77255742	      0.99461977	      1.47231728	     -0.81306655	      0.92138196	      1.47845062	     -0.47157501	      0.99686632	      1.42374734	     -0.59697196	      0.88583858	      1.52207713	     -0.65201458	      0.86381766	      1.38677221	     -0.39452738	      0.83739880	      1.30187373	     -0.39320711	      0.76071580	      1.32017677	     -0.38193545	      0.69313229	      1.20702531	     -0.33159942	      0.67936118	      1.19129765	     -0.41012244	      0.98319148	      1.37518386	     -0.88578456	      0.97695853	      1.30400541	     -0.87554468	      0.88604822	      1.30927459	     -0.91012279	      0.86803276	      1.14780551	     -0.96023050	      0.80163315	      1.15065165	     -0.90057421	      0.78755174	      1.15708134	     -0.31688398	      0.94018152	      1.08071850	     -0.38769450	      0.91445192	      1.04730756	     -0.32897976	      0.94747249	      1.11798526	     -0.90928304	      1.04832278	      1.10123221	     -0.75707797	      1.04510883	      1.03460263	     -0.78556835
      2.88333300	     -1.31543437	     -9.15356157	     -9.81823997	      0.92479725	      1.00328952	     -0.63260379	     27.60805400	     20.64606494	      0.28901829	    -48.40111428	     22.11259270	      9.24363974	    -10.56939475	    -10.06712735	   -125.09359791	      3.88033296	    -21.01187707	      9.76311688	      0.89436142	    -16.18903822	    -27.38138357	     -4.91158206	     99.57459338	    116.23603381	    -12.34146747	    -18.03525523	     11.30738526	    101.31296131	     96.38049815	      0.00000000	      0.00000000	      0.00000000	      0.00000000	      0.00000000	      0.00000000	      0.00000000	      0.00000000	      0.94366319	      0.99767953	     -0.76850865	      0.90752322	      1.03216847	     -0.51081656	      0.75448477	      1.04838862	     -0.70544258	      0.73816720	      1.04952292	     -0.62620188	      0.86363579	      0.86056825	     -0.46590495	      0.95275310	      0.77344750	     -0.47564676	      0.92956681	      0.65072950	     -0.53127854	      0.88976147	      0.78556730	     -0.81780278	      0.94933964	      0.66341689	     -0.80887797	      0.89118185	      0.55793718	     -0.79115078	      1.03229146	      0.38566800	     -0.63728594	      0.99403754	      0.32119537	     -0.57580902	      0.97407276	      0.23198338	     -0.65722406	      0.79590002	      0.45116730	     -0.72779441	      0.72233432	      0.50954977	     -0.77653830	      0.61411794	      0.53976376	     -0.70957099	      0.81414619	      0.10539157	     -0.68997809	      1.04811334	      0.06996843	     -0.70395116	      0.97475217	      0.04885708	     -0.60950153	      0.53388292	      0.68959603	     -0.68720407	      0.41651881	      0.48776260	     -0.69542202	      0.42861730	      0.56754885	     -0.77647914	      0.99147549	      1.46821246	     -0.81416676	      0.92294589	      1.47418757	     -0.47116940	      0.99692751	      1.42039262	     -0.59798829	      0.88572529	      1.51948693	     -0.65144264	      0.87006011	      1.37933457	     -0.39322745	      0.84863366	      1.29256521	     -0.39016445	      0.77186415	      1.30661154	     -0.37471049	      0.71322153	      1.18975484	     -0.32230316	      0.69563296	      1.17304075	     -0.40014873	      0.97788778	      1.37134446	     -0.88635141	      0.97152885	      1.29993123	     -0.87590317	      0.88093904	      1.30667352	     -0.91100525	      0.86011619	      1.14548582	     -0.96101490	      0.79393716	      1.14890386	     -0.90082117	      0.81048937	      1.14249204	     -0.31169909	      0.96179125	      1.07295800	     -0.38725809	      0.93915368	      1.03838475	     -0.32792783	      0.93885860	      1.11154457	     -0.91010007	      1.04060085	      1.08270251	     -0.76266956	      1.03444131	      1.01749827	     -0.79363713
